<?xml version="1.0" encoding="UTF-8"?>
<svg width="210px" height="242px" viewBox="0 0 210 242" version="1.1" xmlns="http://www.w3.org/2000/svg" xmlns:xlink="http://www.w3.org/1999/xlink">
    <!-- Generator: Sketch 58 (84663) - https://sketch.com -->
    <title>SVG Layer</title>
    <desc>Created with Sketch.</desc>
    <g id="Page-1" stroke="none" stroke-width="1" fill="none" fill-rule="evenodd">
        <g id="Artboard-Copy" transform="translate(-200.000000, -115.000000)" fill="#FFEB68" fill-rule="nonzero">
            <g id="SVG-Layer" transform="translate(200.000000, 115.000000)">
                <path d="M210,0 L210,235.361328 L0,242 L0,0 L210,0 Z M176.316813,125.218935 L160.006444,125.218935 L160.006444,203.596275 L170.405672,203.596275 L170.405672,187.066976 L172.813915,187.066976 L178.83452,203.596275 L190.000007,203.596275 L183.213143,185.096596 C186.841926,182.855288 189.221981,178.94901 189.338716,174.392352 L189.343214,174.040574 L189.343214,138.245336 C189.343214,131.020609 183.54154,125.218935 176.316813,125.218935 Z M38.3902081,125.000004 L19.9999941,125.000004 L19.9999941,203.158413 L30.3992222,203.158413 L30.3992222,141.310372 L40.0321915,203.377344 L44.0824171,203.377344 L44.9581416,203.158413 L45.9433316,203.377344 L49.9935573,203.377344 L59.7359921,141.310372 L59.7359921,203.158413 L70.0257547,203.158413 L70.0257547,125.000004 L51.7450063,125.000004 L45.0676072,169.224089 L38.3902081,125.000004 Z M101.44237,125.109469 L87.321313,125.109469 L75.4990326,203.377344 L86.0077263,203.377344 L89.6200897,176.339351 L100.676111,176.339351 L104.616871,203.377344 L115.125565,203.377344 L101.44237,125.109469 Z M130.77914,125.218935 L120.598843,125.218935 L120.598843,203.267878 L130.77914,203.267878 L130.77914,162.54669 L132.421123,159.810051 L143.915007,202.939482 L154.533166,202.939482 L139.755316,147.76884 L150.154544,125.218935 L137.566005,125.218935 L130.77914,142.186096 L130.77914,125.218935 Z M170.405672,135.618163 L176.316813,135.618163 C177.685132,135.618163 178.851037,136.73144 178.938698,138.082166 L178.943986,138.245336 L178.943986,174.040574 C178.943986,175.408894 177.830708,176.574799 176.479983,176.66246 L176.316813,176.667747 L170.405672,176.667747 L170.405672,135.618163 L176.316813,135.618163 Z M94.9839021,137.479077 L99.1435934,165.940123 L91.043142,165.940123 L94.9839021,137.479077 Z M93.5206846,20.0000013 L76.4012472,20.0000013 L62.068695,114.886805 L74.8087414,114.886805 L79.1881323,82.1077276 L92.5917228,82.1077276 L97.3692402,114.886805 L110.109287,114.886805 L93.5206846,20.0000013 Z M189.999994,20.1327101 L158.946131,20.1327101 L158.946131,114.886805 L189.999994,114.886805 L189.999994,102.279468 L171.553469,102.279468 L171.553469,64.8555814 L189.867286,64.8555814 L189.867286,52.2482438 L171.553469,52.2482438 L171.553469,32.7400477 L189.999994,32.7400477 L189.999994,20.1327101 Z M39.6409049,20.1327101 L20,20.1327101 L20,114.754097 L32.6073376,114.754097 L32.6073376,94.9804828 L39.6409049,94.9804828 C48.3996868,94.9804828 55.4332541,87.9469155 55.4332541,79.1881336 L55.4332541,79.1881336 L55.4332541,36.0577681 C55.4332541,27.2989862 48.3996868,20.1327101 39.6409049,20.1327101 L39.6409049,20.1327101 Z M134.527709,20.1327101 C124.707257,20.1327101 116.744728,28.0952391 116.744728,37.9156915 L116.744728,37.9156915 L116.744728,96.8384062 C116.744728,106.658859 124.707257,114.621388 134.527709,114.621388 C144.348161,114.621388 152.31069,106.658859 152.31069,96.8384062 L152.31069,96.8384062 L152.31069,88.345042 L139.703353,88.345042 L139.703353,96.8384062 C139.703353,99.6252914 137.314594,102.01405 134.527709,102.01405 C131.740824,102.01405 129.352065,99.6252914 129.352065,96.8384062 L129.352065,96.8384062 L129.352065,37.9156915 C129.352065,35.1288064 131.740824,32.7400477 134.527709,32.7400477 C137.314594,32.7400477 139.703353,35.1288064 139.703353,37.9156915 L139.703353,37.9156915 L139.703353,43.2240442 L152.31069,43.2240442 L152.31069,37.9156915 C152.31069,28.0952391 144.348161,20.1327101 134.527709,20.1327101 Z M39.6409049,32.7400477 C41.4988283,32.7400477 42.8259165,34.1998447 42.8259165,36.0577681 L42.8259165,36.0577681 L42.8259165,79.1881336 C42.8259165,81.046057 41.4988283,82.3731452 39.6409049,82.3731452 L39.6409049,82.3731452 L32.6073376,82.3731452 L32.6073376,32.7400477 Z M85.69,34.999 L90.7337994,69.50039 L80.913347,69.50039 L85.69,34.999 Z" id="Combined-Shape"></path>
            </g>
        </g>
    </g>
</svg>